<svg width="1360" height="724" viewBox="0 0 1360 724" fill="none" xmlns="http://www.w3.org/2000/svg">
<g filter="url(#filter0_dd_344_3251)">
<g clip-path="url(#clip0_344_3251)">
<path d="M184 8C184 3.58172 187.582 0 192 0H1168C1172.42 0 1176 3.58172 1176 8V707C1176 711.418 1172.42 715 1168 715H192C187.582 715 184 711.418 184 707V8Z" fill="white"/>
<g opacity="0.8" filter="url(#filter1_dd_344_3251)">
<rect width="992" height="36" transform="translate(184)" fill="white"/>
<path d="M199.5 22.1667V13.8333M199.5 22.1667C199.5 22.6087 199.324 23.0326 199.012 23.3452C198.699 23.6577 198.275 23.8333 197.833 23.8333H196.167C195.725 23.8333 195.301 23.6577 194.988 23.3452C194.676 23.0326 194.5 22.6087 194.5 22.1667V13.8333C194.5 13.3913 194.676 12.9674 194.988 12.6548C195.301 12.3423 195.725 12.1667 196.167 12.1667H197.833C198.275 12.1667 198.699 12.3423 199.012 12.6548C199.324 12.9674 199.5 13.3913 199.5 13.8333M199.5 22.1667C199.5 22.6087 199.676 23.0326 199.988 23.3452C200.301 23.6577 200.725 23.8333 201.167 23.8333H202.833C203.275 23.8333 203.699 23.6577 204.012 23.3452C204.324 23.0326 204.5 22.6087 204.5 22.1667M199.5 13.8333C199.5 13.3913 199.676 12.9674 199.988 12.6548C200.301 12.3423 200.725 12.1667 201.167 12.1667H202.833C203.275 12.1667 203.699 12.3423 204.012 12.6548C204.324 12.9674 204.5 13.3913 204.5 13.8333M204.5 22.1667V13.8333M204.5 22.1667C204.5 22.6087 204.676 23.0326 204.988 23.3452C205.301 23.6577 205.725 23.8333 206.167 23.8333H207.833C208.275 23.8333 208.699 23.6577 209.012 23.3452C209.324 23.0326 209.5 22.6087 209.5 22.1667V13.8333C209.5 13.3913 209.324 12.9674 209.012 12.6548C208.699 12.3423 208.275 12.1667 207.833 12.1667H206.167C205.725 12.1667 205.301 12.3423 204.988 12.6548C204.676 12.9674 204.5 13.3913 204.5 13.8333" stroke="#9CA3AF" stroke-width="2" stroke-linecap="round" stroke-linejoin="round"/>
<path d="M419.398 9.76447H221.745C220.229 9.76447 219 10.9935 219 12.5096V23.4904C219 25.0065 220.229 26.2355 221.745 26.2355H419.398C420.914 26.2355 422.143 25.0065 422.143 23.4904V12.5096C422.143 10.9935 420.914 9.76447 419.398 9.76447Z" fill="#E5E7EB"/>
<path d="M1123.2 21.4998C1123.14 21.6552 1123.04 21.7984 1122.92 21.9197C1122.68 22.1633 1122.34 22.2995 1122 22.2996C1121.66 22.2996 1121.32 22.1635 1121.08 21.9197C1120.96 21.7985 1120.86 21.6551 1120.8 21.4998H1123.2ZM1122 13.7C1122.82 13.7001 1123.61 14.0269 1124.19 14.6082C1124.77 15.1895 1125.1 15.9776 1125.1 16.7996V19.159L1125.67 19.7293C1125.68 19.7432 1125.69 19.7609 1125.7 19.7801C1125.7 19.7995 1125.7 19.8204 1125.69 19.8387C1125.69 19.8569 1125.67 19.8727 1125.66 19.8836C1125.64 19.8945 1125.62 19.9002 1125.6 19.9002H1118.4C1118.38 19.9001 1118.36 19.8943 1118.35 19.8836H1118.34C1118.33 19.8727 1118.32 19.8567 1118.31 19.8387C1118.3 19.8204 1118.3 19.7995 1118.3 19.7801C1118.31 19.7609 1118.32 19.7432 1118.33 19.7293L1118.9 19.159V16.7996C1118.9 15.9777 1119.23 15.1895 1119.81 14.6082C1120.39 14.0269 1121.18 13.7 1122 13.7Z" fill="#6B7280" stroke="#6B7280"/>
<path d="M1139 13.8C1138.68 13.8 1138.38 13.9264 1138.15 14.1515C1137.93 14.3765 1137.8 14.6817 1137.8 15V16.2C1137.8 16.5182 1137.93 16.8235 1138.15 17.0485C1138.38 17.2736 1138.68 17.4 1139 17.4H1140.2C1140.52 17.4 1140.82 17.2736 1141.05 17.0485C1141.27 16.8235 1141.4 16.5182 1141.4 16.2V15C1141.4 14.6817 1141.27 14.3765 1141.05 14.1515C1140.82 13.9264 1140.52 13.8 1140.2 13.8H1139ZM1139 18.6C1138.68 18.6 1138.38 18.7264 1138.15 18.9515C1137.93 19.1765 1137.8 19.4817 1137.8 19.8V21C1137.8 21.3182 1137.93 21.6235 1138.15 21.8485C1138.38 22.0736 1138.68 22.2 1139 22.2H1140.2C1140.52 22.2 1140.82 22.0736 1141.05 21.8485C1141.27 21.6235 1141.4 21.3182 1141.4 21V19.8C1141.4 19.4817 1141.27 19.1765 1141.05 18.9515C1140.82 18.7264 1140.52 18.6 1140.2 18.6H1139ZM1142.6 15C1142.6 14.6817 1142.73 14.3765 1142.95 14.1515C1143.18 13.9264 1143.48 13.8 1143.8 13.8H1145C1145.32 13.8 1145.62 13.9264 1145.85 14.1515C1146.07 14.3765 1146.2 14.6817 1146.2 15V16.2C1146.2 16.5182 1146.07 16.8235 1145.85 17.0485C1145.62 17.2736 1145.32 17.4 1145 17.4H1143.8C1143.48 17.4 1143.18 17.2736 1142.95 17.0485C1142.73 16.8235 1142.6 16.5182 1142.6 16.2V15ZM1142.6 19.8C1142.6 19.4817 1142.73 19.1765 1142.95 18.9515C1143.18 18.7264 1143.48 18.6 1143.8 18.6H1145C1145.32 18.6 1145.62 18.7264 1145.85 18.9515C1146.07 19.1765 1146.2 19.4817 1146.2 19.8V21C1146.2 21.3182 1146.07 21.6235 1145.85 21.8485C1145.62 22.0736 1145.32 22.2 1145 22.2H1143.8C1143.48 22.2 1143.18 22.0736 1142.95 21.8485C1142.73 21.6235 1142.6 21.3182 1142.6 21V19.8Z" fill="#6B7280"/>
<path fill-rule="evenodd" clip-rule="evenodd" d="M1166.8 18C1166.8 19.2731 1166.29 20.494 1165.39 21.3941C1164.49 22.2943 1163.27 22.8 1162 22.8C1160.73 22.8 1159.51 22.2943 1158.61 21.3941C1157.71 20.494 1157.2 19.2731 1157.2 18C1157.2 16.727 1157.71 15.5061 1158.61 14.6059C1159.51 13.7057 1160.73 13.2 1162 13.2C1163.27 13.2 1164.49 13.7057 1165.39 14.6059C1166.29 15.5061 1166.8 16.727 1166.8 18ZM1163.2 16.2C1163.2 16.5183 1163.07 16.8235 1162.85 17.0485C1162.62 17.2736 1162.32 17.4 1162 17.4C1161.68 17.4 1161.38 17.2736 1161.15 17.0485C1160.93 16.8235 1160.8 16.5183 1160.8 16.2C1160.8 15.8818 1160.93 15.5765 1161.15 15.3515C1161.38 15.1264 1161.68 15 1162 15C1162.32 15 1162.62 15.1264 1162.85 15.3515C1163.07 15.5765 1163.2 15.8818 1163.2 16.2ZM1162 18.6C1161.43 18.5999 1160.86 18.7647 1160.38 19.0749C1159.9 19.385 1159.51 19.8274 1159.27 20.3496C1159.61 20.7424 1160.03 21.0575 1160.5 21.2733C1160.97 21.4891 1161.48 21.6006 1162 21.6C1162.52 21.6006 1163.03 21.4891 1163.5 21.2733C1163.97 21.0575 1164.39 20.7424 1164.73 20.3496C1164.49 19.8274 1164.1 19.385 1163.62 19.0749C1163.14 18.7647 1162.57 18.5999 1162 18.6Z" fill="#6B7280"/>
</g>
<rect width="992" height="678" transform="translate(184 37)" fill="#F3F4F6"/>
<rect width="194" height="678" transform="translate(184 37)" fill="white"/>
<rect x="204" y="57" width="8" height="8" rx="4" fill="#D1D5DB"/>
<rect x="220" y="57" width="88" height="8" rx="2" fill="#D1D5DB"/>
<rect x="204" y="85" width="8" height="8" rx="4" fill="#D1D5DB"/>
<rect x="220" y="85" width="132" height="8" rx="2" fill="#D1D5DB"/>
<rect x="204" y="113" width="8" height="8" rx="4" fill="#D1D5DB"/>
<rect x="220" y="113" width="129" height="8" rx="2" fill="#D1D5DB"/>
<rect x="204" y="141" width="8" height="8" rx="4" fill="#D1D5DB"/>
<rect x="220" y="141" width="103" height="8" rx="2" fill="#D1D5DB"/>
<rect x="204" y="169" width="8" height="8" rx="4" fill="#D1D5DB"/>
<rect x="220" y="169" width="130" height="8" rx="2" fill="#D1D5DB"/>
<rect x="204" y="197" width="8" height="8" rx="4" fill="#D1D5DB"/>
<rect x="220" y="197" width="92" height="8" rx="2" fill="#D1D5DB"/>
<rect x="204" y="225" width="8" height="8" rx="4" fill="#D1D5DB"/>
<rect x="220" y="225" width="136" height="8" rx="2" fill="#D1D5DB"/>
<rect x="261.5" y="694" width="5" height="5" rx="2.5" fill="#D1D5DB"/>
<rect x="278.5" y="694" width="5" height="5" rx="2.5" fill="#D1D5DB"/>
<rect x="295.5" y="694" width="5" height="5" rx="2.5" fill="#D1D5DB"/>
<rect x="398" y="57" width="758" height="243.528" rx="4" fill="white"/>
<rect x="414" y="73" width="73" height="7" rx="2" fill="#9CA3AF"/>
<rect x="414" y="84" width="39" height="5" rx="2" fill="#D1D5DB"/>
<path d="M414.988 191.074C456.735 185.798 453.952 217.138 508.92 221.711C563.887 226.283 579.194 194.277 604.243 185.132C629.291 175.987 640.424 134.316 682.171 137.13C723.918 139.944 744.792 168.137 779.581 171.654C814.371 175.171 821.329 198.497 854.031 215.731C886.733 232.966 916.652 235.076 957.703 231.559C998.755 228.041 1009.89 192.481 1029.37 191.074C1048.85 189.667 1066.25 206.625 1082.95 210.494C1099.64 214.363 1104.51 231.559 1140 231.559" stroke="#D1D5DB" stroke-width="3" stroke-linecap="round" stroke-linejoin="round"/>
<path d="M414 240.994C445.932 238.105 472.191 220.486 510.292 217.524C530.599 215.946 546.868 219.018 565.019 223.792C583.17 228.565 579.617 230.626 620.439 234.306C654.126 237.343 662.938 204.601 695.948 205.859C728.959 207.117 744.226 167.751 779.078 171.037C813.93 174.324 820.893 165.827 853.654 181.929C886.415 198.031 916.682 160.499 957.807 157.213C998.932 153.927 1009.64 188.805 1029.16 187.49C1048.68 186.176 1066.25 211.029 1082.98 214.644C1099.71 218.258 1104.45 205.127 1140 205.127" stroke="#9CA3AF" stroke-width="3" stroke-linecap="round" stroke-linejoin="round"/>
<rect x="414" y="274.028" width="5" height="5" rx="2" fill="#D1D5DB"/>
<rect x="423" y="274.028" width="22" height="5" rx="2" fill="#D1D5DB"/>
<rect x="471" y="274.028" width="5" height="5" rx="2" fill="#D1D5DB"/>
<rect x="480" y="274.028" width="39" height="5" rx="2" fill="#D1D5DB"/>
<rect x="545" y="274.028" width="5" height="5" rx="2" fill="#D1D5DB"/>
<rect x="554" y="274.028" width="26" height="5" rx="2" fill="#D1D5DB"/>
<g clip-path="url(#clip1_344_3251)">
<rect x="398" y="320.528" width="495" height="251" rx="4" fill="white"/>
<g clip-path="url(#clip2_344_3251)">
<rect x="414" y="336.528" width="73" height="7" rx="2" fill="#9CA3AF"/>
<rect x="414" y="347.528" width="39" height="5" rx="2" fill="#D1D5DB"/>
</g>
<g opacity="0.3">
<path fill-rule="evenodd" clip-rule="evenodd" d="M398 383.121C398 383.121 432.347 448.74 468.714 448.74C503.061 448.74 503.061 420.902 539.429 420.902C573.775 420.902 573.776 466.636 610.143 466.636C644.49 466.636 644.49 377.155 680.857 377.155C715.204 377.155 715.204 514.36 751.571 514.36C785.918 514.36 785.918 458.683 822.286 458.683C856.633 458.683 893 506.406 893 506.406V571.528H398V383.121Z" fill="#9CA3AF"/>
<path fill-rule="evenodd" clip-rule="evenodd" d="M398 383.121C398 383.121 432.347 448.74 468.714 448.74C503.061 448.74 503.061 420.902 539.429 420.902C573.775 420.902 573.776 466.636 610.143 466.636C644.49 466.636 644.49 377.155 680.857 377.155C715.204 377.155 715.204 514.36 751.571 514.36C785.918 514.36 785.918 458.683 822.286 458.683C856.633 458.683 893 506.406 893 506.406V571.528H398V383.121Z" fill="url(#paint0_linear_344_3251)"/>
</g>
<path fill-rule="evenodd" clip-rule="evenodd" d="M680.858 374.528C697.269 374.528 704.472 390.518 717.283 439.658L719.859 449.558C731.654 494.295 739.473 511.115 751.572 511.115C763.423 511.115 770.116 505.193 781.473 487.642L783.276 484.827C796.918 463.44 805.348 455.688 822.286 455.688C824.257 455.688 826.252 455.83 828.268 456.107C842.76 458.1 857.83 466.901 872.933 480.303C878.883 485.581 884.429 491.227 889.431 496.873C890.744 498.355 891.676 499.757 892.765 501.062V502.8V504.566V509.748L888.652 505.228C887.347 503.631 885.834 501.848 884.132 499.928C879.269 494.438 873.877 488.95 868.114 483.836C853.907 471.23 839.869 463.031 827.173 461.285C825.513 461.057 823.883 460.942 822.286 460.942C809.603 460.942 802.433 466.868 791.164 483.992L786.165 491.731C774.264 509.821 766.426 516.368 751.572 516.368C733.966 516.368 726.186 499.352 712.896 448.399L709.752 436.347C698.803 395.201 691.564 379.782 680.858 379.782C668.198 379.782 660.675 390.51 648.62 420.551L645.564 428.203C633.324 458.425 625.757 468.86 610.144 468.86C594.434 468.86 585.976 463.19 573.696 447.936L568.179 440.933C557.597 427.776 551.027 423.331 539.429 423.331C525.866 423.331 518.722 426.356 507.123 435.251L504.827 437.038C491.7 447.327 483.737 451.044 468.715 451.044C451.307 451.044 433.974 438.308 416.988 417.185C411.169 409.949 405.808 402.211 401.022 394.473L399.104 391.32C398.8 390.812 398.504 390.312 398.216 389.821V385.174L398.313 377.331L400.999 382.068L402.51 384.81L404.104 387.575C404.95 389.015 405.866 390.537 406.85 392.128C411.534 399.701 416.78 407.272 422.452 414.326C438.298 434.031 454.302 445.791 468.715 445.791C481.093 445.791 487.701 442.947 498.812 434.416L501.045 432.677C514.675 421.994 523.192 418.078 539.429 418.078C554.456 418.078 562.379 423.793 574.814 439.543L576.789 442.074C589.302 458.188 596.476 463.607 610.144 463.607C621.334 463.607 628.284 453.894 639.38 426.552L643.192 417.025C655.926 385.607 664.068 374.528 680.858 374.528Z" fill="#D1D5DB"/>
</g>
<g clip-path="url(#clip3_344_3251)">
<rect x="913" y="320.528" width="243" height="251" rx="4" fill="white"/>
<rect x="929" y="336.528" width="73" height="7" rx="2" fill="#9CA3AF"/>
<rect x="929" y="347.528" width="39" height="5" rx="2" fill="#D1D5DB"/>
<path d="M932 571.528C930.343 571.528 929 570.185 929 568.528V377.528C929 375.871 930.343 374.528 932 374.528H940C941.657 374.528 943 375.871 943 377.528V568.528C943 570.185 941.657 571.528 940 571.528H932Z" fill="#D1D5DB"/>
<path d="M951 571.528C949.343 571.528 948 570.185 948 568.528V436.528C948 434.871 949.343 433.528 951 433.528H959C960.657 433.528 962 434.871 962 436.528V568.528C962 570.185 960.657 571.528 959 571.528H951Z" fill="#E5E7EB"/>
<path d="M977 571.528C975.343 571.528 974 570.185 974 568.528V487.528C974 485.871 975.343 484.528 977 484.528H985C986.657 484.528 988 485.871 988 487.528V568.528C988 570.185 986.657 571.528 985 571.528H977Z" fill="#D1D5DB"/>
<path d="M996 571.528C994.343 571.528 993 570.185 993 568.528V415.528C993 413.871 994.343 412.528 996 412.528H1004C1005.66 412.528 1007 413.871 1007 415.528V568.528C1007 570.185 1005.66 571.528 1004 571.528H996Z" fill="#E5E7EB"/>
<path d="M1022 571.528C1020.34 571.528 1019 570.185 1019 568.528V404.528C1019 402.871 1020.34 401.528 1022 401.528H1030C1031.66 401.528 1033 402.871 1033 404.528V568.528C1033 570.185 1031.66 571.528 1030 571.528H1022Z" fill="#D1D5DB"/>
<path d="M1041 571.528C1039.34 571.528 1038 570.185 1038 568.528V383.528C1038 381.871 1039.34 380.528 1041 380.528H1049C1050.66 380.528 1052 381.871 1052 383.528V568.528C1052 570.185 1050.66 571.528 1049 571.528H1041Z" fill="#E5E7EB"/>
<path d="M1067 571.528C1065.34 571.528 1064 570.185 1064 568.528V404.528C1064 402.871 1065.34 401.528 1067 401.528H1075C1076.66 401.528 1078 402.871 1078 404.528V568.528C1078 570.185 1076.66 571.528 1075 571.528H1067Z" fill="#D1D5DB"/>
<path d="M1086 571.528C1084.34 571.528 1083 570.185 1083 568.528V489.528C1083 487.871 1084.34 486.528 1086 486.528H1094C1095.66 486.528 1097 487.871 1097 489.528V568.528C1097 570.185 1095.66 571.528 1094 571.528H1086Z" fill="#E5E7EB"/>
<path d="M1112 571.528C1110.34 571.528 1109 570.185 1109 568.528V422.528C1109 420.871 1110.34 419.528 1112 419.528H1120C1121.66 419.528 1123 420.871 1123 422.528V568.528C1123 570.185 1121.66 571.528 1120 571.528H1112Z" fill="#D1D5DB"/>
<path d="M1131 571.528C1129.34 571.528 1128 570.185 1128 568.528V458.528C1128 456.871 1129.34 455.528 1131 455.528H1139C1140.66 455.528 1142 456.871 1142 458.528V568.528C1142 570.185 1140.66 571.528 1139 571.528H1131Z" fill="#E5E7EB"/>
</g>
<rect x="398" y="591.528" width="239.333" height="93" rx="4" fill="white"/>
<rect x="408" y="601.528" width="40" height="4" rx="1" fill="#9CA3AF"/>
<rect x="408" y="622.528" width="152" height="4" rx="1" fill="#E5E7EB"/>
<rect x="408" y="631.528" width="81" height="4" rx="1" fill="#E5E7EB"/>
<rect x="408" y="652.528" width="43" height="14" rx="2" fill="#1A56DB"/>
<rect x="415" y="658.028" width="29" height="3" rx="1" fill="white"/>
<rect x="458" y="652.528" width="43" height="14" rx="2" fill="#E5E7EB"/>
<rect x="465" y="658.028" width="29" height="3" rx="1" fill="white"/>
<rect x="657.333" y="591.528" width="239.333" height="93" rx="4" fill="white"/>
<rect x="667.333" y="601.528" width="40" height="4" rx="2" fill="#9CA3AF"/>
<rect x="817.333" y="602.528" width="14" height="2" rx="1" fill="#D1D5DB"/>
<rect x="667.333" y="622.528" width="30.5" height="4" rx="1" fill="#E5E7EB"/>
<rect x="711.833" y="622.528" width="30.5" height="4" rx="1" fill="#E5E7EB"/>
<rect x="756.333" y="622.528" width="30.5" height="4" rx="1" fill="#E5E7EB"/>
<rect x="800.833" y="622.528" width="30.5" height="4" rx="1" fill="#E5E7EB"/>
<rect x="667.333" y="634.528" width="30.5" height="4" rx="1" fill="#D1D5DB"/>
<rect x="711.833" y="634.528" width="30.5" height="4" rx="1" fill="#E5E7EB"/>
<rect x="756.333" y="634.528" width="30.5" height="4" rx="1" fill="#E5E7EB"/>
<rect x="800.833" y="634.528" width="30.5" height="4" rx="1" fill="#E5E7EB"/>
<rect x="667.333" y="646.528" width="30.5" height="4" rx="1" fill="#D1D5DB"/>
<rect x="711.833" y="646.528" width="30.5" height="4" rx="1" fill="#E5E7EB"/>
<rect x="756.333" y="646.528" width="30.5" height="4" rx="1" fill="#E5E7EB"/>
<rect x="800.833" y="646.528" width="30.5" height="4" rx="1" fill="#E5E7EB"/>
<rect x="667.333" y="658.528" width="30.5" height="4" rx="1" fill="#D1D5DB"/>
<rect x="711.833" y="658.528" width="30.5" height="4" rx="1" fill="#E5E7EB"/>
<rect x="756.333" y="658.528" width="30.5" height="4" rx="1" fill="#E5E7EB"/>
<rect x="800.833" y="658.528" width="30.5" height="4" rx="1" fill="#E5E7EB"/>
<rect x="667.333" y="670.528" width="30.5" height="4" rx="1" fill="#D1D5DB"/>
<rect x="711.833" y="670.528" width="30.5" height="4" rx="1" fill="#E5E7EB"/>
<rect x="756.333" y="670.528" width="30.5" height="4" rx="1" fill="#E5E7EB"/>
<rect x="800.833" y="670.528" width="30.5" height="4" rx="1" fill="#E5E7EB"/>
<rect x="916.667" y="591.528" width="239.333" height="92.6746" rx="4" fill="white"/>
<rect x="926.667" y="601.528" width="40" height="4" rx="2" fill="#9CA3AF"/>
<rect x="1142" y="601.528" width="4" height="4" rx="2" fill="#D1D5DB"/>
<rect x="926.667" y="619.528" width="113" height="5" rx="2.5" fill="#E5E7EB"/>
<rect x="926.667" y="629.528" width="92" height="5" rx="2.5" fill="#E5E7EB"/>
<rect x="926.667" y="639.528" width="109" height="5" rx="2.5" fill="#E5E7EB"/>
<rect x="926.667" y="649.528" width="64" height="5" rx="2.5" fill="#E5E7EB"/>
<rect x="926.667" y="669.366" width="4" height="4" rx="2" fill="#9CA3AF"/>
<rect x="930.667" y="669.366" width="4" height="4" rx="2" fill="#9CA3AF"/>
<rect x="934.667" y="669.366" width="4" height="4" rx="2" fill="#9CA3AF"/>
<rect x="1116.48" y="668.528" width="29.5174" height="5.67462" rx="2" fill="#E5E7EB"/>
</g>
</g>
<defs>
<filter id="filter0_dd_344_3251" x="179" y="-1" width="1002" height="725" filterUnits="userSpaceOnUse" color-interpolation-filters="sRGB">
<feFlood flood-opacity="0" result="BackgroundImageFix"/>
<feColorMatrix in="SourceAlpha" type="matrix" values="0 0 0 0 0 0 0 0 0 0 0 0 0 0 0 0 0 0 127 0" result="hardAlpha"/>
<feMorphology radius="2" operator="erode" in="SourceAlpha" result="effect1_dropShadow_344_3251"/>
<feOffset dy="2"/>
<feGaussianBlur stdDeviation="2"/>
<feColorMatrix type="matrix" values="0 0 0 0 0 0 0 0 0 0 0 0 0 0 0 0 0 0 0.05 0"/>
<feBlend mode="normal" in2="BackgroundImageFix" result="effect1_dropShadow_344_3251"/>
<feColorMatrix in="SourceAlpha" type="matrix" values="0 0 0 0 0 0 0 0 0 0 0 0 0 0 0 0 0 0 127 0" result="hardAlpha"/>
<feMorphology radius="1" operator="erode" in="SourceAlpha" result="effect2_dropShadow_344_3251"/>
<feOffset dy="4"/>
<feGaussianBlur stdDeviation="3"/>
<feColorMatrix type="matrix" values="0 0 0 0 0 0 0 0 0 0 0 0 0 0 0 0 0 0 0.1 0"/>
<feBlend mode="normal" in2="effect1_dropShadow_344_3251" result="effect2_dropShadow_344_3251"/>
<feBlend mode="normal" in="SourceGraphic" in2="effect2_dropShadow_344_3251" result="shape"/>
</filter>
<filter id="filter1_dd_344_3251" x="181" y="-2" width="998" height="42" filterUnits="userSpaceOnUse" color-interpolation-filters="sRGB">
<feFlood flood-opacity="0" result="BackgroundImageFix"/>
<feColorMatrix in="SourceAlpha" type="matrix" values="0 0 0 0 0 0 0 0 0 0 0 0 0 0 0 0 0 0 127 0" result="hardAlpha"/>
<feOffset dy="1"/>
<feGaussianBlur stdDeviation="1.5"/>
<feColorMatrix type="matrix" values="0 0 0 0 0 0 0 0 0 0 0 0 0 0 0 0 0 0 0.1 0"/>
<feBlend mode="normal" in2="BackgroundImageFix" result="effect1_dropShadow_344_3251"/>
<feColorMatrix in="SourceAlpha" type="matrix" values="0 0 0 0 0 0 0 0 0 0 0 0 0 0 0 0 0 0 127 0" result="hardAlpha"/>
<feOffset dy="1"/>
<feGaussianBlur stdDeviation="1"/>
<feColorMatrix type="matrix" values="0 0 0 0 0 0 0 0 0 0 0 0 0 0 0 0 0 0 0.06 0"/>
<feBlend mode="normal" in2="effect1_dropShadow_344_3251" result="effect2_dropShadow_344_3251"/>
<feBlend mode="normal" in="SourceGraphic" in2="effect2_dropShadow_344_3251" result="shape"/>
</filter>
<linearGradient id="paint0_linear_344_3251" x1="645.5" y1="377.155" x2="645.5" y2="571.528" gradientUnits="userSpaceOnUse">
<stop offset="0.046875" stop-color="white" stop-opacity="0"/>
<stop offset="1" stop-color="white"/>
</linearGradient>
<clipPath id="clip0_344_3251">
<path d="M184 8C184 3.58172 187.582 0 192 0H1168C1172.42 0 1176 3.58172 1176 8V707C1176 711.418 1172.42 715 1168 715H192C187.582 715 184 711.418 184 707V8Z" fill="white"/>
</clipPath>
<clipPath id="clip1_344_3251">
<rect x="398" y="320.528" width="495" height="251" rx="4" fill="white"/>
</clipPath>
<clipPath id="clip2_344_3251">
<rect width="495" height="16" fill="white" transform="translate(398 336.528)"/>
</clipPath>
<clipPath id="clip3_344_3251">
<rect x="913" y="320.528" width="243" height="251" rx="4" fill="white"/>
</clipPath>
</defs>
</svg>
