<svg width="24" height="24" viewBox="0 0 24 24" fill="none" xmlns="http://www.w3.org/2000/svg">
<path d="M21.6 1H2.4C1.0764 1 0 2.09633 0 3.44444V20.5556C0 21.9037 1.0764 23 2.4 23H21.6C22.9236 23 24 21.9037 24 20.5556V3.44444C24 2.09633 22.9236 1 21.6 1ZM12.6 4.66667C13.2624 4.66667 13.8 5.21422 13.8 5.88889C13.8 6.56356 13.2624 7.11111 12.6 7.11111C11.9376 7.11111 11.4 6.56356 11.4 5.88889C11.4 5.21422 11.9376 4.66667 12.6 4.66667ZM9 4.66667C9.6624 4.66667 10.2 5.21422 10.2 5.88889C10.2 6.56356 9.6624 7.11111 9 7.11111C8.3376 7.11111 7.8 6.56356 7.8 5.88889C7.8 5.21422 8.3376 4.66667 9 4.66667ZM5.4 4.66667C6.0624 4.66667 6.6 5.21422 6.6 5.88889C6.6 6.56356 6.0624 7.11111 5.4 7.11111C4.7376 7.11111 4.2 6.56356 4.2 5.88889C4.2 5.21422 4.7376 4.66667 5.4 4.66667ZM2.4 20.5556V10.7778H21.6012L21.6024 20.5556H2.4Z" fill="#1A56DB"/>
</svg>
